# xmcd CD Database Entry
#
# Track frame offsets:
# 150
# 20199
# 40511
# 60351
# 87769
# 109926
# 127472
# 146372
# 163035
# 193415
# 213237
# 233466
#
# Disc length: 3584 seconds
#
# Revision: 1
# Processed by: cddbd v1.4PL0 Copyright (c) Steve Scherf et al.
# Submitted via: tcd 2.0b
#
DISCID=a50dfe0c
DTITLE=Various Artist - Blues Power Songs of Eric Clapton
DYEAR=1900
DGENRE=
TTITLE0=Miss You - Larry McCray
TTITLE1=Blues Power - Koko Taylor
TTITLE2=Wonderful Tonight - Otis Clay
TTITLE3=Lay Down Sally - Carl Weathersby
TTITLE4=Strange Brew - Buddy Guy
TTITLE5=Before You Accuse Me - Bo Diddley
TTITLE6=Roll it Over - Joe Louis Walker with James Cotton
TTITLE7=Crossroads - Honeyboy Edwards
TTITLE8=Old Love - Otis Rush
TTITLE9=Too Bad =Pinetop Perkins with John Hammond and Bob Margolin
TTITLE10=Tears in Heaven - Ann Peebles
TTITLE11=Layla - Eric Gales with Derek Trucks
EXTD=
EXTT0=
EXTT1=
EXTT2=
EXTT3=
EXTT4=
EXTT5=
EXTT6=
EXTT7=
EXTT8=
EXTT9=
EXTT10=
EXTT11=
PLAYORDER=
